<mxfile host="app.diagrams.net" modified="2023-07-13T14:23:25.116Z" agent="Mozilla/5.0 (Windows NT 10.0; Win64; x64) AppleWebKit/537.36 (KHTML, like Gecko) Chrome/114.0.0.0 Safari/537.36 Edg/114.0.1823.67" version="21.5.2" etag="xZsPGJ6jDqVX907S7SRe" type="github">
  <diagram name="Page-1" id="l90YJ4gpj98yFYCQQZoy">
    <mxGraphModel>
      <root>
        <mxCell id="0" />
        <mxCell id="1" parent="0" />
      </root>
    </mxGraphModel>
  </diagram>
</mxfile>
